<svg id="Regular" xmlns="http://www.w3.org/2000/svg" viewBox="0 0 24 24"><defs><style>.cls-1{fill:none;stroke:#000;stroke-linecap:round;stroke-linejoin:round;stroke-width:1.5px;}</style></defs><title>armchair</title><path class="cls-1" d="M20.25,12V9A8.25,8.25,0,0,0,3.75,9v3"/><path class="cls-1" d="M23.25,15a3,3,0,1,0-4.983,2.25H5.733A3,3,0,1,0,2.25,17.6V20.25a1.5,1.5,0,0,0,1.5,1.5h16.5a1.5,1.5,0,0,0,1.5-1.5V17.6A3,3,0,0,0,23.25,15Z"/><line class="cls-1" x1="3.75" y1="21.75" x2="3.75" y2="23.25"/><line class="cls-1" x1="20.25" y1="21.75" x2="20.25" y2="23.25"/><line class="cls-1" x1="10.5" y1="7.5" x2="13.5" y2="10.5"/><line class="cls-1" x1="13.5" y1="7.5" x2="10.5" y2="10.5"/></svg>