<svg xmlns="http://www.w3.org/2000/svg" viewBox="0 0 24 24"><defs><style>.a{fill:none;;stroke-linecap:round;stroke-linejoin:round;stroke-width:1.5px;}</style></defs><title>car-clouds</title><circle class="a" cx="18.718" cy="21.75" r="1.5"/><circle class="a" cx="5.218" cy="21.75" r="1.5"/><path class="a" d="M20.218,21.75H21.75a1.5,1.5,0,0,0,1.5-1.5,4.527,4.527,0,0,0-4.532-4.5S16.468,9,10.468,9C5.968,9,1.134,11.682.751,20.216A1.47,1.47,0,0,0,2.218,21.75h1.5"/><line class="a" x1="17.218" y1="21.75" x2="6.718" y2="21.75"/><line class="a" x1="18.718" y1="15.75" x2="1.484" y2="15.75"/><line class="a" x1="9.75" y1="15.75" x2="9.75" y2="9.025"/><path class="a" d="M15.75,6.75a2.25,2.25,0,1,1,1.614-3.817A3,3,0,1,1,20.25,6.75Z"/><path class="a" d="M10.5,6A2.25,2.25,0,0,0,6.636,4.433,3,3,0,1,0,2.249,7.848"/></svg>
