<svg xmlns="http://www.w3.org/2000/svg" viewBox="0 0 24 24"><defs><style>.a{fill:none;stroke:#000;stroke-linecap:round;stroke-linejoin:round;stroke-width:1.5px;}</style></defs><title>architecture-door</title><path class="a" d="M5.5.75h13a1,1,0,0,1,1,1v21.5a0,0,0,0,1,0,0H4.5a0,0,0,0,1,0,0V1.75A1,1,0,0,1,5.5.75Z"/><path class="a" d="M15.75,11.625a.375.375,0,0,1,.375.375"/><path class="a" d="M15.375,12a.375.375,0,0,1,.375-.375"/><path class="a" d="M15.75,12.375A.375.375,0,0,1,15.375,12"/><path class="a" d="M16.125,12a.375.375,0,0,1-.375.375"/><line class="a" x1="1.5" y1="23.25" x2="22.5" y2="23.25"/></svg>