<svg id="Regular" xmlns="http://www.w3.org/2000/svg" viewBox="0 0 24 24"><defs><style>.cls-1{fill:none;stroke:#000;stroke-linecap:round;stroke-linejoin:round;stroke-width:1.5px;}</style></defs><title>weather-cloud</title><line class="cls-1" x1="8.25" y1="6" x2="8.25" y2="3"/><line class="cls-1" x1="3.75" y1="10.5" x2="0.75" y2="10.5"/><line class="cls-1" x1="11.432" y1="7.318" x2="13.553" y2="5.197"/><line class="cls-1" x1="5.068" y1="7.318" x2="2.947" y2="5.197"/><path class="cls-1" d="M4.5,12.984a4.5,4.5,0,1,1,7.65-4.736"/><path class="cls-1" d="M11.25,15a5.993,5.993,0,0,0,.047.75A5.993,5.993,0,0,1,11.25,15a5.848,5.848,0,0,1,.113-1.122"/><path class="cls-1" d="M17.25,21a6,6,0,1,0-5.887-7.122A3.745,3.745,0,1,0,9.75,21Z"/></svg>