<svg id="Regular" xmlns="http://www.w3.org/2000/svg" viewBox="0 0 24 24"><defs><style>.cls-1{fill:none;stroke:#000;stroke-linecap:round;stroke-linejoin:round;stroke-width:1.5px;}</style></defs><title>weather-cloud-snow</title><path class="cls-1" d="M7.657,17.864a.375.375,0,0,1,.375.375"/><path class="cls-1" d="M7.282,18.239a.375.375,0,0,1,.375-.375"/><path class="cls-1" d="M7.657,18.614a.375.375,0,0,1-.375-.375"/><path class="cls-1" d="M8.032,18.239a.375.375,0,0,1-.375.375"/><path class="cls-1" d="M12.157,17.864a.375.375,0,0,1,.375.375"/><path class="cls-1" d="M11.782,18.239a.375.375,0,0,1,.375-.375"/><path class="cls-1" d="M12.157,18.614a.375.375,0,0,1-.375-.375"/><path class="cls-1" d="M12.532,18.239a.375.375,0,0,1-.375.375"/><path class="cls-1" d="M16.657,17.864a.375.375,0,0,1,.375.375"/><path class="cls-1" d="M16.282,18.239a.375.375,0,0,1,.375-.375"/><path class="cls-1" d="M16.657,18.614a.375.375,0,0,1-.375-.375"/><path class="cls-1" d="M17.032,18.239a.375.375,0,0,1-.375.375"/><path class="cls-1" d="M6.157,22.364a.375.375,0,0,1,.375.375"/><path class="cls-1" d="M5.782,22.739a.375.375,0,0,1,.375-.375"/><path class="cls-1" d="M6.157,23.114a.375.375,0,0,1-.375-.375"/><path class="cls-1" d="M6.532,22.739a.375.375,0,0,1-.375.375"/><path class="cls-1" d="M10.657,22.364a.375.375,0,0,1,.375.375"/><path class="cls-1" d="M10.282,22.739a.375.375,0,0,1,.375-.375"/><path class="cls-1" d="M10.657,23.114a.375.375,0,0,1-.375-.375"/><path class="cls-1" d="M11.032,22.739a.375.375,0,0,1-.375.375"/><path class="cls-1" d="M15.157,22.364a.375.375,0,0,1,.375.375"/><path class="cls-1" d="M14.782,22.739a.375.375,0,0,1,.375-.375"/><path class="cls-1" d="M15.157,23.114a.375.375,0,0,1-.375-.375"/><path class="cls-1" d="M15.532,22.739a.375.375,0,0,1-.375.375"/><path class="cls-1" d="M9.157,8.489a5.993,5.993,0,0,0,.047.75,5.993,5.993,0,0,1-.047-.75A5.921,5.921,0,0,1,9.27,7.367"/><path class="cls-1" d="M15.157,14.489A6,6,0,1,0,9.27,7.367a3.745,3.745,0,1,0-1.613,7.122Z"/></svg>