<svg id="Regular" xmlns="http://www.w3.org/2000/svg" viewBox="0 0 24 24"><defs><style>.cls-1{fill:none;stroke:#000;stroke-linecap:round;stroke-linejoin:round;stroke-width:1.5px;}</style></defs><title>weather-cloud-sun-wind</title><line class="cls-1" x1="8.25" y1="3.75" x2="8.25" y2="0.75"/><line class="cls-1" x1="3.75" y1="8.25" x2="0.75" y2="8.25"/><line class="cls-1" x1="11.432" y1="5.068" x2="13.553" y2="2.947"/><line class="cls-1" x1="5.068" y1="5.068" x2="2.947" y2="2.947"/><path class="cls-1" d="M4.5,10.734A4.5,4.5,0,1,1,12.147,6"/><path class="cls-1" d="M11.25,12.75a5.993,5.993,0,0,0,.047.75,5.993,5.993,0,0,1-.047-.75,5.848,5.848,0,0,1,.113-1.122"/><path class="cls-1" d="M19.916,18.126a6,6,0,1,0-8.553-6.5,3.723,3.723,0,0,0-5.275,2.563"/><line class="cls-1" x1="5.297" y1="20.25" x2="16.547" y2="20.25"/><line class="cls-1" x1="0.797" y1="17.25" x2="12.047" y2="17.25"/><line class="cls-1" x1="0.797" y1="23.25" x2="12.047" y2="23.25"/></svg>