<svg id="Regular" xmlns="http://www.w3.org/2000/svg" viewBox="0 0 24 24"><defs><style>.cls-1,.cls-2{fill:none;stroke:#000;stroke-linecap:round;stroke-linejoin:round;stroke-width:1.5px;}.cls-2{fill-rule:evenodd;}</style></defs><title>weather-night-hail</title><path class="cls-1" d="M3.29,12.291A5.982,5.982,0,0,1,.735,10.325a5.579,5.579,0,0,0,3.391-.441A5.625,5.625,0,0,0,6.808,2.4,5.586,5.586,0,0,0,5.606.75a5.977,5.977,0,0,1,5.886,5.23"/><path class="cls-2" d="M9.36,22.48a.375.375,0,0,1,.375.375"/><path class="cls-2" d="M8.985,22.855a.375.375,0,0,1,.375-.375"/><path class="cls-2" d="M9.36,23.23a.375.375,0,0,1-.375-.375"/><path class="cls-2" d="M9.735,22.855a.375.375,0,0,1-.375.375"/><path class="cls-2" d="M13.86,22.48a.375.375,0,0,1,.375.375"/><path class="cls-2" d="M13.485,22.855a.375.375,0,0,1,.375-.375"/><path class="cls-2" d="M13.86,23.23a.375.375,0,0,1-.375-.375"/><path class="cls-2" d="M14.235,22.855a.375.375,0,0,1-.375.375"/><path class="cls-1" d="M20.235,17.927a6,6,0,1,0-8.887-6.319A3.745,3.745,0,1,0,9.735,18.73"/><path class="cls-1" d="M11.235,12.73a6.19,6.19,0,0,0,.046.75,6.19,6.19,0,0,1-.046-.75,5.832,5.832,0,0,1,.113-1.122"/><line class="cls-1" x1="13.485" y1="18.73" x2="9.625" y2="22.59"/><line class="cls-1" x1="17.985" y1="18.73" x2="14.125" y2="22.59"/></svg>